# xmcd
#
# Track frame offsets:
#	150
#	10730
#	23188
#	40079
#	57190
#	75670
#	92592
#	107366
#	124570
#	142973
#	157214
#	174618
#
# Disc length: 2560 seconds
#
# Revision: 0
# Processed by: cddbd v1.5.2PL0 Copyright (c) Steve Scherf et al.
# Submitted via: EasyCDDAExtractor 11.0.2.1
#
DISCID=8a09fe0c
DTITLE=Birgit Õigemeel - Ilus Aeg
DYEAR=2008
DGENRE=Pop-Folk
TTITLE0=Vaikselt sajab lund
TTITLE1=Talvevõlumaa
TTITLE2=Valged jõulud
TTITLE3=Last Christmas
TTITLE4=Snowflaces
TTITLE5=Jõuluaeg
TTITLE6=Jõulukell
TTITLE7=Have Yourself A Merry Little Christmas
TTITLE8=Angel
TTITLE9=Jõuluöö
TTITLE10=Püha öö
TTITLE11=Laps peab sündima
EXTD=
EXTT0=
EXTT1=
EXTT2=
EXTT3=
EXTT4=
EXTT5=
EXTT6=
EXTT7=
EXTT8=
EXTT9=
EXTT10=
EXTT11=
PLAYORDER=
